<svg xmlns="http://www.w3.org/2000/svg" version="1.1" xmlns:xlink="http://www.w3.org/1999/xlink" width="512" height="512" x="0" y="0" viewBox="0 0 501 501" style="enable-background:new 0 0 512 512" xml:space="preserve" class=""><g><path fill="#012d4e" d="M495.5 256c0 116.756-81.671 214.436-191 239.029 0 0-4.477-10.446-10-10.446s-10 14.076-10 14.076c-10.574 1.468-21.365 2.261-32.326 2.335s-4.477-16.411-10-16.411-10 15.742-10 15.742a244.504 244.504 0 0 1-40.498-6.432c-3.619-.892-5.873-5.717-9.426-6.768-3.106-.918-7.52 1.956-10.573.919C75.037 455.227 5.5 363.734 5.5 256c0-135.31 109.69-245 245-245 36.4 0 70.946 7.938 102.001 22.177 10.168 4.662 19.012 11.117 28.374 17.073 7.919 5.038 16.479 9.401 23.746 15.288C460.061 110.455 495.5 179.089 495.5 256z" opacity="1" data-original="#012d4e" class=""></path><path fill="#0ab59e" d="M191.675 176.012v90.475c0 5.523-4.477 10-10 10s-10-4.477-10-10v-80.475h-9.338c-5.523 0-10-4.477-10-10s4.477-10 10-10h19.338c5.523 0 10 4.477 10 10zm86.331 123.513h-19.338c-5.523 0-10 4.477-10 10s4.477 10 10 10h9.338V400c0 5.523 4.477 10 10 10s10-4.477 10-10v-90.475c0-5.523-4.477-10-10-10zm-187.673 0H70.994c-5.523 0-10 4.477-10 10s4.477 10 10 10h9.338V400c0 5.523 4.477 10 10 10s10-4.477 10-10v-90.475c.001-5.523-4.477-10-9.999-10zm91.342 132.321h-19.338c-5.523 0-10 4.477-10 10s4.477 10 10 10h9.338v36.197a243.442 243.442 0 0 0 20 5.849v-52.046c0-5.523-4.477-10-10-10zm270.821-265.834h-19.338c-5.523 0-10 4.477-10 10s4.477 10 10 10h9.338v80.475c0 5.523 4.477 10 10 10s10-4.477 10-10v-90.475c0-5.523-4.477-10-10-10zm-82.327 0h-19.338c-5.523 0-10 4.477-10 10s4.477 10 10 10h9.338v80.475c0 5.523 4.477 10 10 10s10-4.477 10-10v-90.475c0-5.523-4.477-10-10-10z" opacity="1" data-original="#0ab59e"></path><path fill="#5affb7" d="M268.337 278.333c-19.94 0-36.163-16.223-36.163-36.163v-41.841c0-19.94 16.223-36.164 36.163-36.164s36.163 16.223 36.163 36.164v41.841c0 19.94-16.223 36.163-36.163 36.163zm0-94.168c-8.913 0-16.163 7.251-16.163 16.164v41.841c0 8.912 7.251 16.163 16.163 16.163s16.163-7.251 16.163-16.163v-41.841c0-8.913-7.25-16.164-16.163-16.164zM80.663 278.333c-19.94 0-36.163-16.223-36.163-36.163v-41.841c0-19.94 16.223-36.164 36.163-36.164s36.163 16.223 36.163 36.164v41.841c0 19.94-16.222 36.163-36.163 36.163zm0-94.168c-8.913 0-16.163 7.251-16.163 16.164v41.841c0 8.912 7.25 16.163 16.163 16.163s16.163-7.251 16.163-16.163v-41.841c0-8.913-7.25-16.164-16.163-16.164zM268.337 430c-19.94 0-36.163 16.223-36.163 36.163v34.162a248.697 248.697 0 0 0 20 .669v-34.831c0-8.912 7.251-16.163 16.163-16.163s16.163 7.251 16.163 16.163v32.496a243.912 243.912 0 0 0 20-3.63v-28.866c0-19.94-16.223-36.163-36.163-36.163zm-96.331-20c-19.94 0-36.163-16.223-36.163-36.163v-41.841c0-19.94 16.223-36.164 36.163-36.164s36.163 16.223 36.163 36.164v41.841c0 19.94-16.223 36.163-36.163 36.163zm0-94.168c-8.913 0-16.163 7.251-16.163 16.164v41.841c0 8.912 7.25 16.163 16.163 16.163s16.163-7.251 16.163-16.163v-41.841c0-8.913-7.251-16.164-16.163-16.164zm96.331-172.139c-19.94 0-36.163-16.223-36.163-36.164V65.688c0-19.94 16.223-36.163 36.163-36.163S304.5 45.748 304.5 65.688v41.841c0 19.941-16.223 36.164-36.163 36.164zm0-94.168c-8.913 0-16.163 7.251-16.163 16.163v41.841c0 8.913 7.251 16.164 16.163 16.164s16.163-7.251 16.163-16.164V65.688c0-8.912-7.25-16.163-16.163-16.163zm63.837 16.163v41.841c0 19.94 16.223 36.164 36.163 36.164S404.5 127.47 404.5 107.529V65.688l-.002-.249a245.046 245.046 0 0 0-51.994-32.26c-12.027 5.881-20.33 18.243-20.33 32.509zm52.326 0v41.841c0 8.913-7.25 16.164-16.163 16.164s-16.163-7.251-16.163-16.164V65.688c0-8.912 7.25-16.163 16.163-16.163S384.5 56.776 384.5 65.688z" opacity="1" data-original="#5affb7"></path><path fill="#006e66" d="M192.006 120c0 11.046-8.954 20-20 20s-20-8.954-20-20 8.954-20 20-20 20 8.954 20 20zm-20-40c8.284 0 15-6.716 15-15s-6.716-15-15-15-15 6.716-15 15 6.716 15 15 15zm0-50c8.284 0 15-6.716 15-15s-6.716-15-15-15-15 6.716-15 15 6.716 15 15 15zm196.331 310c-11.046 0-20-8.954-20-20s8.954-20 20-20 20 8.954 20 20-8.954 20-20 20zm-15 35c0 8.284 6.716 15 15 15s15-6.716 15-15-6.716-15-15-15-15 6.716-15 15zm0 50c0 8.284 6.716 15 15 15s15-6.716 15-15-6.716-15-15-15-15 6.716-15 15z" opacity="1" data-original="#006e66"></path><path fill="#06995f" d="M192.006 120c0 2.598-.495 5.079-1.396 7.356a19.95 19.95 0 0 1-7.356 1.396c-11.046 0-20-8.954-20-20 0-2.598.495-5.079 1.396-7.356a19.95 19.95 0 0 1 7.356-1.396c11.046 0 20 8.954 20 20zm-20-70c-1.16 0-2.288.132-3.372.381a15.05 15.05 0 0 0-.381 3.372c0 8.284 6.716 15 15 15 1.16 0 2.288-.132 3.372-.381a15.05 15.05 0 0 0 .381-3.372c0-8.284-6.716-15-15-15zm11.247-31.247c1.16 0 2.288-.132 3.372-.381a15.05 15.05 0 0 0 .381-3.372c0-8.284-6.716-15-15-15-1.16 0-2.288.132-3.372.381a15.05 15.05 0 0 0-.381 3.372c0 8.284 6.716 15 15 15zM388.337 320c0-2.598-.495-5.079-1.396-7.356a19.95 19.95 0 0 0-7.356-1.396c-11.046 0-20 8.954-20 20 0 2.598.495 5.079 1.396 7.356a19.95 19.95 0 0 0 7.356 1.396c11.046 0 20-8.954 20-20zm-5 55c0-1.16-.132-2.288-.381-3.372a15.05 15.05 0 0 0-3.372-.381c-8.284 0-15 6.716-15 15 0 1.16.132 2.288.381 3.372a15.05 15.05 0 0 0 3.372.381c8.284 0 15-6.716 15-15zm-18.753 61.247c0 1.16.132 2.288.381 3.372a15.05 15.05 0 0 0 3.372.381c8.284 0 15-6.716 15-15 0-1.16-.132-2.288-.381-3.372a15.05 15.05 0 0 0-3.372-.381c-8.284 0-15 6.716-15 15z" opacity="1" data-original="#06995f" class=""></path></g></svg>